HIERARCHY
ROOT Hips
{
	OFFSET 0.000000 0.000000 0.000000
	CHANNELS 6 Xposition Yposition Zposition Xrotation Yrotation Zrotation
	JOINT Chest
	{
		OFFSET 0.000000 0.009282 11.569106
		CHANNELS 3 Xrotation Yrotation Zrotation
		JOINT Chest2
		{
			OFFSET 0.000000 -0.016863 9.269641
			CHANNELS 3 Xrotation Yrotation Zrotation
			JOINT Chest3
			{
				OFFSET 0.000000 0.000000 8.374491
				CHANNELS 3 Xrotation Yrotation Zrotation
				JOINT Chest4
				{
					OFFSET 0.000000 0.000000 8.374493
					CHANNELS 3 Xrotation Yrotation Zrotation
					JOINT Neck
					{
						OFFSET 0.000000 -0.000001 12.152554
						CHANNELS 3 Xrotation Yrotation Zrotation
						JOINT Head
						{
							OFFSET 0.000000 -0.040100 7.802319
							CHANNELS 3 Xrotation Yrotation Zrotation
							End Site
							{
								OFFSET 0.000000 -0.020946 14.853096
							}
						}
					}
					JOINT RightCollar
					{
						OFFSET -2.894404 0.000000 6.791374
						CHANNELS 3 Xrotation Yrotation Zrotation
						JOINT RightShoulder
						{
							OFFSET -13.574684 0.000000 0.000000
							CHANNELS 3 Xrotation Yrotation Zrotation
							JOINT RightElbow
							{
								OFFSET -23.923903 0.000000 0.000000
								CHANNELS 3 Xrotation Yrotation Zrotation
								JOINT RightWrist
								{
									OFFSET -19.846718 -0.012765 0.000000
									CHANNELS 3 Xrotation Yrotation Zrotation
									End Site
									{
										OFFSET -14.973145 0.000000 0.000000
									}
								}
							}
						}
					}
					JOINT LeftCollar
					{
						OFFSET 2.894404 0.000000 6.791374
						CHANNELS 3 Xrotation Yrotation Zrotation
						JOINT LeftShoulder
						{
							OFFSET 13.574684 0.000000 0.000000
							CHANNELS 3 Xrotation Yrotation Zrotation
							JOINT LeftElbow
							{
								OFFSET 23.923903 0.000000 0.000000
								CHANNELS 3 Xrotation Yrotation Zrotation
								JOINT LeftWrist
								{
									OFFSET 19.846718 -0.012765 0.000000
									CHANNELS 3 Xrotation Yrotation Zrotation
									End Site
									{
										OFFSET 14.973145 0.000000 0.000000
									}
								}
							}
						}
					}
				}
			}
		}
	}
	JOINT RightHip
	{
		OFFSET -9.469263 -0.004642 0.045487
		CHANNELS 3 Xrotation Yrotation Zrotation
		JOINT RightKnee
		{
			OFFSET 0.000000 -0.002666 -40.478676
			CHANNELS 3 Xrotation Yrotation Zrotation
			JOINT RightAnkle
			{
				OFFSET 0.000000 -0.049110 -35.224068
				CHANNELS 3 Xrotation Yrotation Zrotation
				JOINT RightToe
				{
					OFFSET 0.000000 -12.539530 -6.151390
					CHANNELS 3 Xrotation Yrotation Zrotation
					End Site
					{
						OFFSET 0.000000 -5.044995 -1.291870
					}
				}
			}
		}
	}
	JOINT LeftHip
	{
		OFFSET 9.469263 -0.004642 0.045487
		CHANNELS 3 Xrotation Yrotation Zrotation
		JOINT LeftKnee
		{
			OFFSET 0.000000 -0.002666 -40.478676
			CHANNELS 3 Xrotation Yrotation Zrotation
			JOINT LeftAnkle
			{
				OFFSET 0.000000 -0.049110 -35.224068
				CHANNELS 3 Xrotation Yrotation Zrotation
				JOINT LeftToe
				{
					OFFSET 0.000000 -12.539530 -6.151390
					CHANNELS 3 Xrotation Yrotation Zrotation
					End Site
					{
						OFFSET 0.000000 -5.044995 -1.291870
					}
				}
			}
		}
	}
}
MOTION
Frames: 8
Frame Time: 0.016667
-11.736956 -6.428731 83.230804 3.888598 5.610787 -111.905321 3.504090 -0.182785 1.464742 1.555104 -0.092347 0.699537 1.555104 -0.092347 0.699536 1.166224 -0.071041 0.524420 16.593285 -2.222848 -2.259388 -5.423069 -3.250929 -4.905362 0.317887 -4.230418 -0.682362 27.920821 -54.114182 73.313201 33.025416 9.220547 33.101583 -4.960656 19.761602 44.817632 -0.264571 11.022837 -9.150162 21.913279 81.829853 -46.358201 -17.979409 55.291799 -20.099490 -59.663717 -30.992690 -44.316415 8.084615 0.594859 1.687674 4.112623 -0.767966 -6.902675 -4.598438 -1.837122 5.339569 0.499863 0.061837 -0.118724 11.381242 0.438000 2.573715 -0.549035 -0.286206 2.607517 -3.878459 0.421425 -3.569429 -0.041832 0.008763 0.113524 
-11.687996 -6.369028 83.232941 3.846344 5.471788 -111.873007 3.469143 -0.154787 1.471301 1.538683 -0.079424 0.709104 1.538683 -0.079424 0.709100 1.153921 -0.061355 0.531631 16.575749 -2.197228 -2.260249 -5.454382 -3.203338 -4.898224 0.297173 -4.228923 -0.666609 27.978765 -54.062426 73.440626 32.843050 9.343571 33.148783 -5.134865 19.920108 45.099616 -0.269878 11.011516 -9.177340 21.840384 81.693973 -46.325700 -17.831068 55.435373 -20.283317 -59.642072 -30.975485 -44.245552 8.263342 0.462409 1.415674 3.418133 -0.588339 -6.837057 -4.302470 -1.939609 5.471109 0.489874 0.130576 -0.119884 11.251015 0.364320 2.642432 -0.626171 -0.291622 2.495738 -3.818581 0.452576 -3.602296 -0.035006 0.017512 0.115603 
-11.631855 -6.308747 83.234489 3.804098 5.341047 -111.860931 3.426562 -0.125776 1.481589 1.520224 -0.065472 0.718839 1.520224 -0.065472 0.718838 1.140093 -0.050894 0.538972 16.556968 -2.171003 -2.258430 -5.487975 -3.155553 -4.886018 0.294096 -4.241209 -0.653230 27.975053 -54.104855 73.507992 32.739105 9.459656 33.197506 -5.349587 20.127698 45.441283 -0.238879 11.005458 -9.190665 21.471157 81.555635 -46.026227 -17.564081 55.600673 -20.517007 -59.639456 -30.995084 -44.206531 8.381296 0.345456 1.231067 2.849240 -0.438216 -6.803112 -4.053009 -2.027115 5.596430 0.471783 0.179845 -0.121353 11.118373 0.295825 2.725159 -0.689069 -0.294300 2.403245 -3.765032 0.486159 -3.619194 -0.027938 0.022561 0.117403 
-11.562245 -6.255857 83.235710 3.759617 5.216021 -111.871252 3.384113 -0.091601 1.499567 1.503367 -0.049006 0.729600 1.503367 -0.049005 0.729601 1.127469 -0.038549 0.547082 16.527997 -2.149810 -2.252872 -5.540771 -3.117891 -4.869019 0.300589 -4.263196 -0.657701 27.921877 -54.234116 73.546084 32.666196 9.536881 33.280910 -5.544935 20.318705 45.743218 -0.199496 10.994597 -9.189578 20.729626 81.437117 -45.386802 -17.241604 55.824085 -20.734581 -59.672180 -31.038125 -44.233193 8.418568 0.253415 1.178411 2.427595 -0.337019 -6.831205 -3.860208 -2.088859 5.687170 0.450072 0.214470 -0.125168 10.976226 0.235375 2.798604 -0.741425 -0.290849 2.313600 -3.711442 0.513279 -3.578104 -0.020024 0.025004 0.119376 
-11.478651 -6.216639 83.236687 3.714071 5.101837 -111.902780 3.354393 -0.053003 1.526859 1.492154 -0.030535 0.742384 1.492154 -0.030535 0.742382 1.119080 -0.024715 0.556714 16.483217 -2.134946 -2.248251 -5.623228 -3.090864 -4.856369 0.309381 -4.289806 -0.664337 27.907518 -54.370850 73.637321 32.526925 9.615203 33.389953 -5.680750 20.457707 45.947673 -0.165431 10.982449 -9.193606 19.738125 81.342717 -44.505089 -16.898465 56.094711 -20.963676 -59.656682 -31.106696 -44.250316 8.382549 0.194791 1.236044 2.145472 -0.282153 -6.902742 -3.720553 -2.127851 5.748208 0.427883 0.234272 -0.129786 10.824848 0.184571 2.860879 -0.774068 -0.285844 2.239925 -3.659757 0.535229 -3.557246 -0.012312 0.027409 0.120218 
-11.383048 -6.189108 83.237854 3.667737 4.998448 -111.946343 3.338038 -0.013458 1.557840 1.485953 -0.010285 0.756185 1.485953 -0.010284 0.756193 1.114454 -0.009552 0.567121 16.426409 -2.129244 -2.241268 -5.728489 -3.080943 -4.842993 0.317656 -4.325893 -0.664512 27.873281 -54.495026 73.689668 32.337561 9.706056 33.564130 -5.740707 20.570667 46.035577 -0.131958 10.957876 -9.207626 18.574904 81.280276 -43.458824 -16.530268 56.375511 -21.231985 -59.604281 -31.122648 -44.204656 8.293038 0.144141 1.343479 1.969276 -0.235644 -6.977543 -3.617874 -2.150256 5.748538 0.405301 0.238762 -0.130708 10.666980 0.151300 2.910367 -0.794777 -0.290912 2.198472 -3.604383 0.555068 -3.557237 -0.005474 0.030037 0.119128 
-11.276836 -6.162097 83.239983 3.621363 4.909998 -112.000083 3.342207 0.021433 1.593628 1.487652 0.010534 0.771180 1.487652 0.010534 0.771188 1.115754 0.006024 0.578423 16.362244 -2.125427 -2.231352 -5.847500 -3.075251 -4.825102 0.307496 -4.356422 -0.665852 27.864038 -54.589788 73.751167 32.092289 9.805367 33.768414 -5.735607 20.705385 46.036578 -0.127198 10.931658 -9.225097 17.561338 81.222267 -42.541123 -16.125805 56.603888 -21.575044 -59.435862 -31.094491 -44.038113 8.169967 0.099614 1.471895 1.874084 -0.194562 -7.033771 -3.541713 -2.154498 5.721291 0.381719 0.230423 -0.126906 10.511922 0.118204 2.958565 -0.806380 -0.285106 2.169436 -3.544928 0.570654 -3.538105 -0.001467 0.032010 0.118049 
-11.162080 -6.132890 83.243454 3.573250 4.840418 -112.052464 3.354510 0.055429 1.627169 1.492775 0.031263 0.784468 1.492775 0.031263 0.784469 1.119623 0.021532 0.588431 16.309138 -2.112751 -2.219756 -5.945560 -3.054442 -4.800704 0.296265 -4.382272 -0.667572 27.846857 -54.683191 73.788528 31.826831 9.902853 33.992567 -5.683817 20.861148 46.037008 -0.120749 10.909617 -9.250404 16.531677 81.155515 -41.609769 -15.584274 56.727241 -22.045271 -59.150524 -31.072617 -43.743933 8.036395 0.070917 1.587435 1.836134 -0.165568 -7.068179 -3.486648 -2.148246 5.715705 0.356781 0.216721 -0.123091 10.363225 0.087743 2.981918 -0.808432 -0.274470 2.153534 -3.481135 0.587626 -3.484768 -0.001071 0.031887 0.116384 
